<svg xmlns="http://www.w3.org/2000/svg" version="1.1" xmlns:xlink="http://www.w3.org/1999/xlink" xmlns:svgjs="http://svgjs.dev/svgjs" width="100%" height="100%" viewBox="0 0 1000 600"><rect width="1000" height="600" x="0" y="0" fill="#9a9483"/><g><rect width="333.3333333333333" height="333.3333333333333" y="248.81704162127937" fill="#1d1b1b" transform="matrix(0.5516454888298536,0,0,0.5516454888298535,0,70.8002926939547)" x="226.5948028564453"/><path d="M401.22275957846745 371.1112499033163L401.22275957846745 371.1112499033163Q419.81470533854383 340.4837120517043 454.7038730747073 340.4837120517043L454.7038730747073 340.4837120517043Q490.7169871540492 340.4837120517043 502.75257924558474 370.73660112225684L502.75257924558474 370.73660112225684Q507.0142091301363 381.976064554041 507.0142091301363 396.68102921062535L507.0142091301363 396.68102921062535L507.0142091301363 479.6189031176663Q507.0142091301363 485.0513104430287 503.314552417174 487.76751410570984Q499.6617268018441 490.48371776839105 495.40009691729256 490.48371776839105L495.40009691729256 490.48371776839105Q490.7169871540492 490.48371776839105 487.0641615387193 487.5801897151801Q483.36450482575697 484.6766616619692 483.36450482575697 479.6189031176663L483.36450482575697 479.6189031176663L483.36450482575697 395.135602988755Q483.36450482575697 377.2929547907976 473.29581883478363 367.22426879982424L473.29581883478363 367.22426879982424Q463.97643040592925 358.70100903072125 449.2714657493449 358.70100903072125L449.2714657493449 358.70100903072125Q419.81470533854383 358.70100903072125 409.3245394688786 382.72536211615994L409.3245394688786 382.72536211615994Q405.06290958432703 391.6701017639549 405.06290958432703 404.45499141760945L405.06290958432703 404.45499141760945L405.06290958432703 479.6189031176663Q405.06290958432703 485.0513104430287 401.4100839689972 487.76751410570984Q397.7104272560349 490.48371776839105 393.44879737148335 490.48371776839105L393.44879737148335 490.48371776839105Q388.8125187058724 490.48371776839105 385.1128619929101 487.5801897151801Q381.4600363775802 484.6766616619692 381.4600363775802 479.6189031176663L381.4600363775802 479.6189031176663L381.4600363775802 395.135602988755Q381.4600363775802 377.2929547907976 371.76599916766634 367.22426879982424L371.76599916766634 367.22426879982424Q362.44661073881196 358.70100903072125 350.41101864727636 358.70100903072125Q338.4222576533732 358.70100903072125 330.6482954463891 361.4172126934024Q322.92116433703745 364.13341635608356 316.69262835192376 370.31512124356493L316.69262835192376 370.31512124356493Q304.3292185769611 382.72536211615994 303.53308991720974 405.20428897972835L303.53308991720974 405.20428897972835L303.53308991720974 479.6189031176663Q303.53308991720974 485.0513104430287 299.64610881371766 487.76751410570984Q295.8059588078581 490.48371776839105 291.5443289233066 490.48371776839105Q287.282699038755 490.48371776839105 283.395717935263 487.5801897151801Q279.508736831771 484.6766616619692 279.508736831771 479.6189031176663L279.508736831771 479.6189031176663L279.508736831771 354.4393791461697Q279.508736831771 349.42845169949925 283.395717935263 346.2907681581262Q287.282699038755 343.1999157143855 290.7482002635552 343.1999157143855Q294.2137014883553 343.1999157143855 296.18060758891755 344.1833687646666Q298.1006825918473 345.16682181494775 299.64610881371766 346.2907681581262L299.64610881371766 346.2907681581262Q303.53308991720974 349.42845169949925 303.53308991720974 354.0647303651102L303.53308991720974 354.0647303651102L303.53308991720974 368.02039745957563Q308.96549724257204 354.8140279272292 323.29581311809693 347.46154559893705L323.29581311809693 347.46154559893705Q336.0807027717515 340.4837120517043 353.1272223099575 340.4837120517043L353.1272223099575 340.4837120517043Q379.49313027701794 340.4837120517043 393.44879737148335 357.1555828088509L393.44879737148335 357.1555828088509Q398.0850760370944 363.3841187939646 401.22275957846745 371.1112499033163Z " fill="white" transform="matrix(0.5516454888298536,0,0,0.5516454888298535,0,70.8002926939547)"/><path d="M711.3337612185871 392.08141232429085L711.3337612185871 392.08141232429085Q721.7318760239964 374.952024206564 741.2447111122326 374.952024206564L741.2447111122326 374.952024206564Q761.3861475992845 374.952024206564 768.1174209116023 391.87187852468566L768.1174209116023 391.87187852468566Q770.5008678821117 398.1578925128423 770.5008678821117 406.38209414734723L770.5008678821117 406.38209414734723L770.5008678821117 452.7676390349532Q770.5008678821117 455.8058791292289 768.4317216110101 457.32499917636676Q766.3887670648592 458.8441192235046 764.0053200943498 458.8441192235046L764.0053200943498 458.8441192235046Q761.3861475992845 458.8441192235046 759.3431930531336 457.22023227656416Q757.2740467820321 455.5963453296237 757.2740467820321 452.7676390349532L757.2740467820321 452.7676390349532L757.2740467820321 405.5177672239757Q757.2740467820321 395.538720017777 751.6428259176417 389.90749915338665L751.6428259176417 389.90749915338665Q746.4306726524618 385.14060521236786 738.2064710179568 385.14060521236786L738.2064710179568 385.14060521236786Q721.7318760239964 385.14060521236786 715.8649296350501 398.57696011205275L715.8649296350501 398.57696011205275Q713.4814826645407 403.5795795776274 713.4814826645407 410.7299204891556L713.4814826645407 410.7299204891556L713.4814826645407 452.7676390349532Q713.4814826645407 455.8058791292289 711.4385281183897 457.32499917636676Q709.3693818472882 458.8441192235046 706.9859348767789 458.8441192235046L706.9859348767789 458.8441192235046Q704.3929541066642 458.8441192235046 702.3238078355627 457.22023227656416Q700.2808532894118 455.5963453296237 700.2808532894118 452.7676390349532L700.2808532894118 452.7676390349532L700.2808532894118 405.5177672239757Q700.2808532894118 395.538720017777 694.8591662246266 389.90749915338665L694.8591662246266 389.90749915338665Q689.6470129594468 385.14060521236786 682.9157396471289 385.14060521236786Q676.210658059762 385.14060521236786 671.8628317179536 386.65972525950576Q667.5411971010958 388.1788453066436 664.057697682659 391.63615300012975L664.057697682659 391.63615300012975Q657.1430822956868 398.57696011205275 656.6978229715256 411.148988088366L656.6978229715256 411.148988088366L656.6978229715256 452.7676390349532Q656.6978229715256 455.8058791292289 654.5239098006214 457.32499917636676Q652.3761883546679 458.8441192235046 649.9927413841585 458.8441192235046Q647.6092944136492 458.8441192235046 645.4353812427449 457.22023227656416Q643.2614680718407 455.5963453296237 643.2614680718407 452.7676390349532L643.2614680718407 452.7676390349532L643.2614680718407 382.75715824185846Q643.2614680718407 379.9546436721386 645.4353812427449 378.1997981004449Q647.6092944136492 376.4711442537018 649.5474820599975 376.4711442537018Q651.4856697063458 376.4711442537018 652.5857221542731 377.0211704776655Q653.6595828772499 377.5711967016292 654.5239098006214 378.1997981004449L654.5239098006214 378.1997981004449Q656.6978229715256 379.9546436721386 656.6978229715256 382.54762444225327L656.6978229715256 382.54762444225327L656.6978229715256 390.35275847754775Q659.7360630658013 382.9666920414637 667.750730900701 378.8545912242112L667.750730900701 378.8545912242112Q674.9010718122292 374.952024206564 684.4348596942668 374.952024206564L684.4348596942668 374.952024206564Q699.1808008414844 374.952024206564 706.9859348767789 384.27627828899637L706.9859348767789 384.27627828899637Q709.5789156468934 387.75977770743316 711.3337612185871 392.08141232429085ZM790.0137029703479 417.88026140068376L790.0137029703479 417.88026140068376Q790.0137029703479 410.0751273653893 792.50191684066 402.26999333009474Q794.9901307109719 394.46485929480025 800.2022839761519 388.1788453066436L800.2022839761519 388.1788453066436Q811.0456581057222 374.952024206564 830.9775607931688 374.952024206564Q850.9094634806156 374.952024206564 861.7528376101858 388.1788453066436L861.7528376101858 388.1788453066436Q871.9414186159897 400.7508732829569 871.9414186159897 417.67072760107857L871.9414186159897 417.67072760107857Q871.9414186159897 434.7739239938548 861.7528376101858 447.1364181705629L861.7528376101858 447.1364181705629Q850.9094634806156 460.5727730702477 830.9775607931688 460.5727730702477Q811.0456581057222 460.5727730702477 800.2022839761519 447.1364181705629L800.2022839761519 447.1364181705629Q790.0137029703479 435.00964951841064 790.0137029703479 417.88026140068376ZM804.1048509937991 417.88026140068376L804.1048509937991 417.88026140068376Q804.1048509937991 423.066222940913 805.4930124161838 428.93316932985925Q806.907365563519 434.7739239938548 810.600398781561 439.77654345942943L810.600398781561 439.77654345942943Q817.9602734926945 450.3841920644438 830.9775607931688 450.3841920644438L830.9775607931688 450.3841920644438Q844.6234494924589 450.3841920644438 851.3547228047767 439.77654345942943L851.3547228047767 439.77654345942943Q857.6407367929334 429.79749625323075 857.6407367929334 417.67072760107857L857.6407367929334 417.67072760107857Q857.6407367929334 405.0986996247653 851.3547228047767 395.9839793419381L851.3547228047767 395.9839793419381Q844.4139156928536 385.14060521236786 830.9775607931688 385.14060521236786L830.9775607931688 385.14060521236786Q817.9602734926945 385.14060521236786 810.600398781561 395.9839793419381L810.600398781561 395.9839793419381Q804.1048509937991 404.8629741002094 804.1048509937991 417.88026140068376ZM935.0110922971614 454.0772252824858L935.0110922971614 454.0772252824858Q935.0110922971614 460.5727730702477 919.6365497511283 460.5727730702477L919.6365497511283 460.5727730702477Q908.1383824977918 460.5727730702477 903.371488556773 454.28675908209107L903.371488556773 454.28675908209107Q898.159335291593 447.581677494724 897.7402676923825 432.18094322374014L897.7402676923825 432.18094322374014L897.7402676923825 386.65972525950576L888.2064798103451 386.65972525950576Q885.5873073152798 386.65972525950576 884.0681872681419 385.03583831256526Q882.5752589459547 383.4119513656248 882.5752589459547 381.6832975188817L882.5752589459547 381.6832975188817Q882.5752589459547 379.9546436721386 883.8586534685367 378.1997981004449Q885.1682397160693 376.4711442537018 888.2064798103451 376.4711442537018L888.2064798103451 376.4711442537018L898.6045946157542 376.4711442537018L899.4689215391256 353.0557421478183Q899.9141808632868 350.46276137770366 901.8523685096351 349.0484082303684Q903.816747880934 347.6340550830332 905.9644693268876 347.6340550830332Q908.1383824977918 347.6340550830332 909.6575025449297 348.9436413305658Q911.1766225920675 350.25322757809846 911.1766225920675 353.0557421478183L911.1766225920675 353.0557421478183L911.1766225920675 376.4711442537018L926.1320975388901 376.4711442537018Q928.7250783090049 376.4711442537018 930.13943145634 378.1997981004449Q931.5537846036752 379.9546436721386 931.5537846036752 381.6832975188817L931.5537846036752 381.6832975188817Q931.5537846036752 383.8572106897859 930.13943145634 385.2453721121705Q928.7250783090049 386.65972525950576 926.1320975388901 386.65972525950576L926.1320975388901 386.65972525950576L911.1766225920675 386.65972525950576L911.1766225920675 425.030602312212Q911.1766225920675 441.05993798201143 912.2504833150442 444.4386705006456Q913.3505357629717 447.7912112943292 915.7339827334811 449.1007975418618Q918.1174297039904 450.3841920644438 921.5747373974766 450.3841920644438L921.5747373974766 450.3841920644438L930.0346645565375 449.7293989406775Q932.4181115270468 449.7293989406775 933.7276977745794 451.2485189878153Q935.0110922971614 452.7676390349532 935.0110922971614 454.0772252824858ZM943.9162787803834 417.88026140068376L943.9162787803834 417.88026140068376Q943.9162787803834 410.0751273653893 946.4044926506954 402.26999333009474Q948.8927065210073 394.46485929480025 954.1048597861873 388.1788453066436L954.1048597861873 388.1788453066436Q964.9220421908069 374.952024206564 984.8801366032042 374.952024206564Q1004.812039290651 374.952024206564 1015.6554134202211 388.1788453066436L1015.6554134202211 388.1788453066436Q1025.8439944260251 400.7508732829569 1025.8439944260251 417.67072760107857L1025.8439944260251 417.67072760107857Q1025.8439944260251 434.7739239938548 1015.6554134202211 447.1364181705629L1015.6554134202211 447.1364181705629Q1004.812039290651 460.5727730702477 984.8801366032042 460.5727730702477Q964.9220421908069 460.5727730702477 954.1048597861873 447.1364181705629L954.1048597861873 447.1364181705629Q943.9162787803834 435.00964951841064 943.9162787803834 417.88026140068376ZM958.0074268038345 417.88026140068376L958.0074268038345 417.88026140068376Q958.0074268038345 423.066222940913 959.3955882262192 428.93316932985925Q960.8099413735545 434.7739239938548 964.5029745915964 439.77654345942943L964.5029745915964 439.77654345942943Q971.8628493027297 450.3841920644438 984.8801366032042 450.3841920644438L984.8801366032042 450.3841920644438Q998.5260253024942 450.3841920644438 1005.257298614812 439.77654345942943L1005.257298614812 439.77654345942943Q1011.5433126029686 429.79749625323075 1011.5433126029686 417.67072760107857L1011.5433126029686 417.67072760107857Q1011.5433126029686 405.0986996247653 1005.257298614812 395.9839793419381L1005.257298614812 395.9839793419381Q998.3164915028891 385.14060521236786 984.8801366032042 385.14060521236786L984.8801366032042 385.14060521236786Q971.8628493027297 385.14060521236786 964.5029745915964 395.9839793419381L964.5029745915964 395.9839793419381Q958.0074268038345 404.8629741002094 958.0074268038345 417.88026140068376ZM1057.2740643668083 390.562292277153L1057.2740643668083 390.562292277153Q1065.7339915258692 374.952024206564 1086.7397549362927 374.952024206564L1086.7397549362927 374.952024206564Q1104.0786768536248 374.952024206564 1113.193397136452 388.1788453066436L1113.193397136452 388.1788453066436Q1121.4437904959075 400.33180568374644 1121.4437904959075 418.089795200289L1121.4437904959075 418.089795200289Q1121.4437904959075 436.29304404099264 1112.7743295372416 447.7912112943292L1112.7743295372416 447.7912112943292Q1103.450075454809 460.78230686985296 1086.5302211366875 460.5727730702477L1086.5302211366875 460.5727730702477Q1072.229539313631 460.5727730702477 1063.114819030804 451.90331211158167L1063.114819030804 451.90331211158167Q1059.867045136923 449.1007975418618 1057.2740643668083 445.1982305242146L1057.2740643668083 445.1982305242146L1057.2740643668083 484.1977089757365Q1057.2740643668083 487.4454828696174 1055.1001511959041 488.96460291675527Q1052.926238025 490.4837229638931 1050.7785165790465 490.4837229638931L1050.7785165790465 490.4837229638931Q1048.159344083981 490.4837229638931 1046.0116226380276 488.7550691171501Q1043.8377094671234 487.02641527040697 1043.8377094671234 484.1977089757365L1043.8377094671234 484.1977089757365L1043.8377094671234 382.75715824185846Q1043.8377094671234 379.5093843479776 1045.7758971134717 377.99026430083967Q1047.7402764847707 376.4711442537018 1051.407117977862 376.4711442537018L1051.407117977862 376.4711442537018Q1058.583650614341 376.4711442537018 1057.2740643668083 390.562292277153ZM1062.5909845317908 394.6743930944055Q1059.4479775377126 399.02221943621385 1058.3479250897851 405.0986996247653Q1057.2740643668083 411.148988088366 1057.2740643668083 417.77549450088117Q1057.2740643668083 424.37580918844566 1058.7931844139462 430.1117969526386Q1060.312304461084 435.8739764417822 1063.3505445553596 440.640870382801L1063.3505445553596 440.640870382801Q1070.265159942332 450.61991758899967 1083.2824472428065 450.3841920644438L1083.2824472428065 450.3841920644438Q1095.8544752191199 450.3841920644438 1102.3500230068817 439.9860772590347L1102.3500230068817 439.9860772590347Q1107.3526424724564 431.52615009997385 1107.3526424724564 417.67072760107857L1107.3526424724564 417.67072760107857Q1107.3526424724564 395.7744455423329 1094.9901482957482 388.1788453066436L1094.9901482957482 388.1788453066436Q1090.4327881543347 385.3501390119731 1083.1776803430039 385.2453721121705Q1075.922572531673 385.14060521236786 1070.8151861662957 387.75977770743316Q1065.7339915258692 390.35275847754775 1062.5909845317908 394.6743930944055ZM1180.4013633598267 408.7655411178566L1180.4013633598267 408.7655411178566Q1184.9325317762898 408.7655411178566 1189.4898919177033 409.00126664241253L1189.4898919177033 409.00126664241253L1189.4898919177033 402.06045953048954Q1189.4898919177033 385.14060521236786 1170.6318499532335 385.14060521236786L1170.6318499532335 385.14060521236786Q1162.1719227941726 385.14060521236786 1158.2693557765251 386.65972525950576L1158.2693557765251 386.65972525950576Q1151.354740389553 389.25270602962036 1148.3165002952771 391.1123185011167Q1145.2782602010016 392.9457392476624 1143.5496063542585 392.9457392476624Q1141.7947607825647 392.9457392476624 1140.3018324603775 391.63615300012975Q1138.7827124132396 390.35275847754775 1138.7827124132396 388.1788453066436L1138.7827124132396 388.1788453066436Q1138.7827124132396 386.4501914599005 1140.7209000595878 384.7215376131574L1140.7209000595878 384.7215376131574Q1150.909481065392 374.952024206564 1170.8413837528385 374.952024206564L1170.8413837528385 374.952024206564Q1193.8377182595116 374.952024206564 1200.3332660472736 390.35275847754775L1200.3332660472736 390.35275847754775Q1202.5071792181775 395.7744455423329 1202.5071792181775 402.9247864538611L1202.5071792181775 402.9247864538611L1202.0619198940167 453.00336455950907Q1202.0619198940167 455.8058791292289 1200.1237322476682 457.32499917636676Q1198.1593528763692 458.8441192235046 1195.7759059058599 458.8441192235046Q1193.3924589353505 458.8441192235046 1191.4542712890022 457.534532975972Q1189.4898919177033 456.25113845339 1189.4898919177033 453.2128983591143L1189.4898919177033 453.2128983591143L1189.4898919177033 445.4077643238198Q1184.303930377474 456.67020605260046 1170.8413837528385 459.49891234727096L1170.8413837528385 459.49891234727096Q1166.729282935586 460.5727730702477 1161.543321395357 460.5727730702477Q1156.331168130177 460.5727730702477 1151.2237817647997 459.05365302310986Q1146.142587124373 457.534532975972 1142.2400201067258 454.28675908209107L1142.2400201067258 454.28675908209107Q1134.225352271826 447.581677494724 1134.225352271826 436.08351024138744L1134.225352271826 436.08351024138744Q1134.225352271826 408.7655411178566 1180.4013633598267 408.7655411178566ZM1189.4898919177033 425.8949292355835L1189.4898919177033 418.5350545244501Q1186.032584224217 418.9541221236605 1181.4752240828034 418.9541221236605Q1176.91786394139 418.9541221236605 1172.1509700003712 419.05888902346317Q1167.3840760593523 419.1898476482164 1163.0624414424947 420.15894147139056Q1158.7146151006864 421.1280352945647 1155.2573074072002 423.066222940913L1155.2573074072002 423.066222940913Q1147.871240971116 426.9687899585603 1147.4521733719057 435.8739764417822L1147.4521733719057 435.8739764417822Q1147.4521733719057 442.8147835537052 1153.083394236296 446.7173505713524L1153.083394236296 446.7173505713524Q1157.4050288531537 450.17465826483857 1165.445888413004 450.3841920644438L1165.445888413004 450.3841920644438Q1175.189210094647 450.3841920644438 1182.339551006175 444.0981780762872L1182.339551006175 444.0981780762872Q1188.835098793937 438.0478896126864 1189.4898919177033 425.8949292355835L1189.4898919177033 425.8949292355835ZM1240.4327969467229 382.9666920414637L1240.4327969467229 390.35275847754775Q1245.6449502119026 374.952024206564 1263.19340592884 374.952024206564L1263.19340592884 374.952024206564Q1266.4411798227209 374.952024206564 1268.0650667696616 376.8116366780603Q1269.6889537166019 378.645057424606 1269.6889537166019 380.71420369570757Q1269.6889537166019 382.75715824185846 1268.0650667696616 384.6167707133548Q1266.4411798227209 386.4501914599005 1262.1195452058635 386.4501914599005Q1257.771718864055 386.4501914599005 1253.4500842471973 388.1788453066436Q1249.1022579053888 389.90749915338665 1246.2735516107184 393.1552730472676L1246.2735516107184 393.1552730472676Q1240.4327969467229 400.33180568374644 1240.4327969467229 412.0133150117376L1240.4327969467229 412.0133150117376L1240.4327969467229 452.7676390349532Q1240.4327969467229 455.8058791292289 1238.2588837758185 457.32499917636676Q1236.0849706049144 458.8441192235046 1234.3563167581715 458.8441192235046Q1232.6276629114282 458.8441192235046 1231.5538021884515 458.5298185240968Q1230.4537497405242 458.1893260997383 1229.3798890175476 457.11546537676156L1229.3798890175476 457.11546537676156Q1227.4155096462484 455.8058791292289 1227.4155096462484 452.7676390349532L1227.4155096462484 452.7676390349532L1227.4155096462484 382.9666920414637Q1227.4155096462484 380.16417747174387 1229.3798890175476 378.33075672519817Q1231.3180766638957 376.4711442537018 1234.251549858369 376.4711442537018Q1237.1850230528419 376.4711442537018 1238.8089099997824 378.33075672519817Q1240.4327969467229 380.16417747174387 1240.4327969467229 382.9666920414637L1240.4327969467229 382.9666920414637ZM1329.3013197042876 454.0772252824858L1329.3013197042876 454.0772252824858Q1329.3013197042876 460.5727730702477 1313.9267771582543 460.5727730702477L1313.9267771582543 460.5727730702477Q1302.428609904918 460.5727730702477 1297.661715963899 454.28675908209107L1297.661715963899 454.28675908209107Q1292.449562698719 447.581677494724 1292.0304950995087 432.18094322374014L1292.0304950995087 432.18094322374014L1292.0304950995087 386.65972525950576L1282.496707217471 386.65972525950576Q1279.877534722406 386.65972525950576 1278.358414675268 385.03583831256526Q1276.8392946281301 383.4119513656248 1276.8392946281301 381.6832975188817L1276.8392946281301 381.6832975188817Q1276.8392946281301 379.9546436721386 1278.1488808756628 378.1997981004449Q1279.4584671231953 376.4711442537018 1282.496707217471 376.4711442537018L1282.496707217471 376.4711442537018L1292.8948220228801 376.4711442537018L1293.7591489462518 353.0557421478183Q1294.1782165454622 350.46276137770366 1296.1425959167611 349.0484082303684Q1298.0807835631094 347.6340550830332 1300.2546967340138 347.6340550830332Q1302.428609904918 347.6340550830332 1303.9477299520556 348.9436413305658Q1305.4668499991935 350.25322757809846 1305.4668499991935 353.0557421478183L1305.4668499991935 353.0557421478183L1305.4668499991935 376.4711442537018L1320.4223249460163 376.4711442537018Q1323.0153057161308 376.4711442537018 1324.429658863466 378.1997981004449Q1325.8440120108014 379.9546436721386 1325.8440120108014 381.6832975188817L1325.8440120108014 381.6832975188817Q1325.8440120108014 383.8572106897859 1324.429658863466 385.2453721121705Q1323.0153057161308 386.65972525950576 1320.4223249460163 386.65972525950576L1320.4223249460163 386.65972525950576L1305.4668499991935 386.65972525950576L1305.4668499991935 425.030602312212Q1305.4668499991935 441.05993798201143 1306.5407107221704 444.4386705006456Q1307.6407631700977 447.7912112943292 1310.0242101406072 449.1007975418618Q1312.4076571111166 450.3841920644438 1315.8649648046028 450.3841920644438L1315.8649648046028 450.3841920644438L1324.3248919636635 449.7293989406775Q1326.7083389341728 449.7293989406775 1327.9917334567551 451.2485189878153Q1329.3013197042876 452.7676390349532 1329.3013197042876 454.0772252824858ZM1373.3034176213841 385.14060521236786L1373.3034176213841 385.14060521236786Q1354.445375656914 385.14060521236786 1354.8906349810752 397.05784006491484L1354.8906349810752 397.05784006491484Q1354.8906349810752 404.65344030060413 1365.7078173856949 407.4821465952746L1365.7078173856949 407.4821465952746Q1369.400850603737 408.55600731825143 1373.6439100457426 409.4203342416229Q1377.8607777627979 410.2846611649945 1382.8372055034217 411.4894805127245Q1387.8398249689963 412.66810813550387 1393.0257865092256 414.6324875068029L1393.0257865092256 414.6324875068029Q1400.4118529453096 416.78020895275637 1404.4191868627597 421.88759531813366Q1408.4265207802093 426.9687899585603 1408.4265207802093 434.1453225950391L1408.4265207802093 434.1453225950391Q1408.4265207802093 447.1364181705629 1397.373612851034 454.28675908209107L1397.373612851034 454.28675908209107Q1387.3945656448352 460.78230686985296 1372.2295568984075 460.5727730702477L1372.2295568984075 460.5727730702477Q1360.940923444676 460.5727730702477 1350.1237410400565 456.67020605260046L1350.1237410400565 456.67020605260046Q1345.775914698248 454.94155220585736 1343.1829339281333 452.55810523534797Q1340.5637614330683 450.17465826483857 1340.5637614330683 448.0007450939344Q1340.5637614330683 445.8268319230302 1341.9781145804034 444.5434374004482Q1343.3924677277387 443.23385115291563 1345.3568470990379 443.23385115291563Q1347.295034745386 443.23385115291563 1349.7832486156979 444.33390360084303Q1352.2714624860098 445.4077643238198 1356.1740295036573 446.7173505713524L1356.1740295036573 446.7173505713524Q1366.153076709856 450.3841920644438 1372.2295568984075 450.3841920644438Q1378.2798453620082 450.3841920644438 1381.97287858005 449.62463204087487Q1385.665911798092 448.865072017306 1388.704151892368 447.1364181705629L1388.704151892368 447.1364181705629Q1395.1996996801297 442.8147835537052 1395.1996996801297 435.8739764417822L1395.1996996801297 435.8739764417822Q1395.1996996801297 430.87135697620755 1392.0566926860513 428.1736093062903Q1388.9136856919731 425.47586163637305 1384.0420248511516 423.9567415892352Q1379.1703640103303 422.43762154209736 1374.3772783443608 421.33756909416996Q1369.610384403342 420.26370837119316 1364.8434904623234 419.1898476482164Q1360.0765965213045 418.089795200289 1355.7549619044469 416.57067515315117Q1351.4071355626386 415.05155510601327 1348.3688954683628 412.4585743358987L1348.3688954683628 412.4585743358987Q1341.009020757229 407.2464210707188 1341.009020757229 397.7126331886812L1341.009020757229 397.7126331886812Q1341.009020757229 385.58586453652896 1351.1976017630332 380.16417747174387L1351.1976017630332 380.16417747174387Q1359.657528922094 374.952024206564 1373.5129514209893 374.952024206564L1373.5129514209893 374.952024206564Q1387.6040994444404 374.952024206564 1396.0640266035014 379.0641250238165L1396.0640266035014 379.0641250238165Q1403.2143675150294 382.75715824185846 1403.2143675150294 387.31451838327206L1403.2143675150294 387.31451838327206Q1403.2143675150294 389.04317223001516 1401.8000143676943 390.14322467794256Q1400.4118529453096 391.2170854009193 1398.657007373616 391.2170854009193L1398.657007373616 391.2170854009193Q1395.409233479735 391.2170854009193 1393.7853465327946 390.14322467794256Q1392.1614595858541 389.04317223001516 1390.2232719395058 387.96931150703836Q1388.2588925682069 386.86925905911096 1385.665911798092 386.4501914599005L1385.665911798092 386.4501914599005Q1380.8990178570734 385.14060521236786 1373.3034176213841 385.14060521236786ZM1431.5014304617346 453.8676914828806Q1430.9514042377707 452.34857143574277 1430.9514042377707 450.8294513886049Q1430.9514042377707 449.310331341467 1431.5014304617346 447.8959781941318Q1432.051456685698 446.4816250467965 1433.3610429332307 445.3029974240172Q1434.6444374558127 444.0981780762872 1436.2683244027533 443.44338495252083Q1437.8922113496938 442.8147835537052 1440.0661245205977 442.8147835537052Q1442.2400376915023 442.8147835537052 1443.75915773864 443.44338495252083Q1445.2782777857776 444.0981780762872 1446.456905408557 445.3029974240172Q1447.6617247562874 446.4816250467965 1448.1855592553002 447.8959781941318Q1448.7355854792638 449.310331341467 1448.7355854792638 450.8294513886049Q1448.7355854792638 452.34857143574277 1448.1855592553002 453.8676914828806Q1447.6617247562874 455.38681153001846 1446.456905408557 456.46067225299527Q1445.2782777857776 457.534532975972 1443.75915773864 458.1893260997383Q1442.2400376915023 458.8441192235046 1440.0661245205977 458.8441192235046Q1437.8922113496938 458.8441192235046 1436.2683244027533 458.1893260997383Q1434.6444374558127 457.534532975972 1433.3610429332307 456.46067225299527Q1432.051456685698 455.38681153001846 1431.5014304617346 453.8676914828806ZM1492.5281495967554 347.86978060758906L1492.5281495967554 347.86978060758906Q1492.5281495967554 351.3270883010752 1490.144702626246 353.5010014719794Q1487.7612556557365 355.67491464288355 1483.413429313928 355.67491464288355Q1479.0917946970706 355.67491464288355 1476.708347726561 353.5010014719794Q1474.3249007560519 351.3270883010752 1474.3249007560519 347.86978060758906L1474.3249007560519 347.86978060758906Q1474.3249007560519 344.83154051331337 1476.708347726561 342.65762734240917Q1479.0917946970706 340.48371417150497 1483.5181962137308 340.48371417150497Q1487.9707894553417 340.48371417150497 1490.2494695260486 342.65762734240917Q1492.5281495967554 344.83154051331337 1492.5281495967554 347.86978060758906ZM1476.9178815261664 452.34857143574277L1476.9178815261664 383.4119513656248Q1476.9178815261664 380.16417747174387 1479.0917946970706 378.33075672519817Q1481.2395161430238 376.4711442537018 1482.9943617147178 376.4711442537018Q1484.7230155614607 376.4711442537018 1485.7968762844375 377.0211704776655Q1486.8969287323648 377.5711967016292 1487.9707894553417 378.645057424606L1487.9707894553417 378.645057424606Q1490.3542364258512 380.16417747174387 1490.3542364258512 383.4119513656248L1490.3542364258512 383.4119513656248L1490.3542364258512 452.34857143574277Q1490.3542364258512 455.5963453296237 1488.180323254947 457.22023227656416Q1486.0326018089934 458.8441192235046 1483.413429313928 458.8441192235046L1483.413429313928 458.8441192235046Q1480.8204485438134 458.8441192235046 1478.8560691725145 457.22023227656416Q1476.9178815261664 455.5963453296237 1476.9178815261664 452.34857143574277L1476.9178815261664 452.34857143574277ZM1515.9435517026388 452.7676390349532L1515.9435517026388 382.75715824185846Q1515.9435517026388 379.9546436721386 1518.091273148592 378.1997981004449Q1520.2651863194965 376.4711442537018 1522.4390994904008 376.4711442537018L1522.4390994904008 376.4711442537018Q1526.9964596318143 376.4711442537018 1528.2798541543964 379.9546436721386Q1529.5894404019289 383.4119513656248 1528.9346472781624 390.35275847754775L1528.9346472781624 390.35275847754775Q1531.5276280482772 383.8572106897859 1540.223280731894 379.0641250238165L1540.223280731894 379.0641250238165Q1547.7926892426324 374.952024206564 1555.283522578519 374.952024206564Q1562.7481641894553 374.952024206564 1567.9603174546353 376.8116366780603Q1573.1462789948644 378.645057424606 1577.4941053366726 382.54762444225327L1577.4941053366726 382.54762444225327Q1586.1635662953388 390.7718260767582 1586.1635662953388 406.82735347150833L1586.1635662953388 406.82735347150833L1586.1635662953388 452.7676390349532Q1586.1635662953388 455.8058791292289 1583.884886224632 457.32499917636676Q1581.6062061539253 458.8441192235046 1579.2227591834155 458.8441192235046L1579.2227591834155 458.8441192235046Q1576.6297784133012 458.8441192235046 1574.6653990420023 457.22023227656416Q1572.727211395654 455.5963453296237 1572.727211395654 452.7676390349532L1572.727211395654 452.7676390349532L1572.727211395654 405.9630265481368Q1572.727211395654 395.7744455423329 1567.0959905312636 390.35275847754775L1567.0959905312636 390.35275847754775Q1561.8838372660837 385.14060521236786 1554.0787032307892 385.14060521236786L1554.0787032307892 385.14060521236786Q1543.6805884253802 385.14060521236786 1536.3207137142465 391.2170854009193L1536.3207137142465 391.2170854009193Q1528.9346472781624 397.7126331886812 1528.9346472781624 411.148988088366L1528.9346472781624 411.148988088366L1528.9346472781624 452.7676390349532Q1528.9346472781624 455.8058791292289 1526.7607341072585 457.32499917636676Q1524.613012661305 458.8441192235046 1521.9938401662396 458.8441192235046L1521.9938401662396 458.8441192235046Q1519.400859396125 458.8441192235046 1517.6722055493817 457.22023227656416Q1515.9435517026388 455.5963453296237 1515.9435517026388 452.7676390349532L1515.9435517026388 452.7676390349532Z " fill="white" transform="matrix(0.5516454888298536,0,0,0.5516454888298535,0,70.8002926939547)"/></g></svg>